<svg width="27" height="17" xmlns="http://www.w3.org/2000/svg"><path d="M2.521.112c-.737 0-1.4.183-1.864.637C.193 1.204 0 1.863 0 2.585V14.33c0 .72.19 1.371.657 1.826.467.454 1.141.647 1.884.647h21.957c.728 0 1.395-.198 1.854-.657.46-.46.648-1.113.648-1.845V2.556c0-.71-.19-1.357-.648-1.807C25.895.3 25.24.112 24.518.112H2.52zM25 1.397L14.138 10.06c-.462.222-.814.222-1.276 0L2.012 1.406c7.407-.052 16.825-.052 22.987-.01zM1.266 2.39L8.81 8.42l-7.525 6.307c-.03-4.293-.03-8.427-.02-12.335zm24.468 0c.01 4.218.01 8.545-.03 12.335L18.19 8.42l7.544-6.028zM9.811 9.211c.816.648 1.648 1.33 2.463 1.96a2.763 2.763 0 0 0 2.452 0c.822-.632 1.646-1.307 2.463-1.96l7.564 6.346c-7.486.015-15.73 0-22.506-.01L9.81 9.211z" fill="#2D98C2"/></svg>