<svg version="1" xmlns="http://www.w3.org/2000/svg" width="346.667" height="346.667" viewBox="0 0 260.000000 260.000000"><path d="M162.5 74.1c-12.5 1.6-20.3 10.3-22 24.7-.7 6.2-1.3 6.9-5 6.7-1.9-.1-3.8.1-4.3.4-1 .7-3.5 16.2-2.7 16.9.3.3 2 .6 3.8.6 3.7.1 3.7.5 1.8 11.6-.7 3.6-1.3 7.4-1.5 8.5-.2 1.1-.9 4.9-1.5 8.5-.6 3.6-1.2 7.4-1.4 8.5-.1 1.1-.5 2.4-.9 3-.3.5-.3 1.7.1 2.5.5 1.2 2.6 1.5 10.3 1.5h9.8l1-2.9c.5-1.6 1-3.9 1-5.1 0-1.2.3-2.4.6-2.8.4-.3.8-2.5 1.1-4.9.5-4.7.6-5.9 1.6-10.3.4-1.7.9-4.4 1.1-6 1.9-12.8 1.8-12.6 8.8-12.1 2 .2 4.1 0 4.6-.3 1-.6 2.1-4.7 2.6-9.6.2-1.7.7-3.8 1.1-4.8 1.1-2.5.1-3.1-5.3-3.3-2.6-.1-5.2-.2-5.8-.3-2.1-.2.7-9.1 3.4-10.9 2.2-1.4 7.5-1.9 11.1-1 1.5.3 2.5-2.8 3.5-10.5.3-2 .7-4.1 1-4.6 1.7-2.6-9.4-5.1-17.9-4zM114.5 75c-.4.6-1 .8-1.5.5-.5-.3-1.1-.1-1.5.5-.4.6-1.1.8-1.6.5-.5-.4-.9-.1-.9.4 0 .6-.5 1.1-1.1 1.1-1.8 0-5.9 5-8.1 9.8-2 4.5-2.5 6.2-3.4 12.7-.4 2.2-.8 4.2-1 4.4-.3.3-6.7.5-14.4.5s-14 .4-14 .8.4.8.8.8c1.9 0 9.3 7.5 11.8 11.8 2.6 4.7 2.7 4.7 7.5 4.6l4.9-.2-.6 5.2c-.4 2.8-1 6-1.3 7.1-.4 1.1-.6 3-.5 4.2 0 1.3-.2 2.3-.5 2.3-.4 0-.7 1.5-.8 3.2-.1 1.8-.7 5.8-1.3 8.8-.5 3-1.2 7.1-1.5 9.1l-.5 3.5h9.8c6.7 0 10.1-.4 11.1-1.4.7-.7 1.1-1.5.8-1.8-.2-.3-.1-2.2.4-4.2.4-2 1.1-6 1.5-8.7.3-2.8.8-5.9 1.1-7 .3-1.1.6-3.1.8-4.5.1-1.4.5-3.2.9-4.1.4-.9.6-2 .4-2.5-.5-1.9 1.3-8.2 2.5-8.6.6-.3 3.6-.4 6.5-.3 4.6 0 5.2-.2 5.3-2 0-1.1.2-2.7.4-3.5 2.9-13.4 3.3-12.4-5.2-12.1-4.2.2-4.3.1-4.3-2.9 0-7.3 4.6-11.1 12.8-10.3 3.5.3 4.2.1 4.3-1.4.1-1.9.4-3.4.8-4.3.2-.3.4-1.9.5-3.5.2-1.7.6-4 .9-5.2.5-1.9 0-2.4-3.1-3.3-4.8-1.3-17.9-1.3-18.7 0zM208.9 93.2c0 1.3-.3 3.2-.5 4.3-.3 1.1-.5 3-.6 4.3-.1 2.7-1.4 3.6-5.3 3.8-4.8.2-5.1.3-5.1 2.1-.1 1-.4 3.6-.9 5.8-.4 2.2-.8 5.3-.9 7-.1 2.7.2 2.9 3.9 3.1 2.2.1 4.1.2 4.1.3.1 0-.3 2.2-.8 4.8-2.3 11.3-3.2 23.9-1.8 24.8.5.3.7 1.1.5 1.8-.7 1.7 4.3 7.1 8.8 9.6 2.1 1.2 5.7 2.3 8 2.5 2.3.3 4.2.6 4.2.7 0 .5 8.1.5 9 0 .6-.3 1.7-.6 2.5-.6s1.6-1.1 1.8-2.5c.6-4.6.9-6.5 1.7-8.2.3-.9.5-2.7.3-4-.3-1.9-.9-2.3-4.8-2.4-8.9-.4-13.1-3.8-11.2-9.4.6-1.6.8-3.1.5-3.4-.3-.3-.2-1.3.2-2.3.5-1 .9-2.7 1-3.8.1-1.1.5-3.4.9-5.1l.7-3h7.5c4.2.1 7.9-.1 8.4-.4.8-.5 2.7-9.3 3.3-15 .2-2.5.1-2.5-7.5-2.4-7.1 0-7.7-.1-8.1-2.2-.2-1.2 0-2.9.5-3.8.5-.9 1-3.2 1.2-5.1l.2-3.5h-10.8c-10.5 0-10.8.1-10.9 2.2z"/><path d="M43 105.2c-1.9.5-4.3 1-5.2 1.1-1 .1-1.8.5-1.8.9s-.9.8-2 .8-2.3.7-2.6 1.5c-.4.8-1.2 1.5-1.9 1.5-2.3 0-10.4 10.3-12.2 15.5-3.3 9.6-1.9 21.1 3.4 28.8 2.8 4 9.8 9.7 12 9.7.7 0 1.3.5 1.3 1.1 0 .5.5.7 1 .4.6-.4 1.6-.2 2.3.3 1.2 1.1 16.3 1 20.3-.1 4.5-1.1 10.3-4.8 14.6-9.1 4.5-4.5 9.3-12.9 8.3-14.6-.3-.5-.1-1.1.4-1.4.5-.4.8-3.7.6-7.4-.3-3.7-.5-7.5-.5-8.5-.1-.9-.5-1.7-1-1.7-.4 0-1.1-1.1-1.4-2.5-1.4-5.6-13.7-15.2-20.6-16.2-6.3-.9-11.8-.9-15-.1zm8.5 18.2c4.8-.1 10.9 10 8.7 14.3-.5 1-.7 2.3-.5 2.9.2.6-1.4 2.9-3.6 5.1-3.5 3.6-4.3 4-8.3 3.8-5.5-.3-8.4-2-10-6-1.9-4.5-1.7-9.6.6-13.7 1.8-3.1 5.3-6 7.8-6.2.3-.1 1-.4 1.4-.9.4-.4 1-.4 1.3 0 .3.5 1.5.8 2.6.7zM175.2 106c-.4.3-.8 1-.9 1.6-.1.6-.7 3.8-1.2 7-.6 3.3-1.3 7.2-1.7 8.9-.3 1.6-.7 4.4-.8 6.1-.1 1.6-.5 3.4-.8 4-.3.5-.9 3.4-1.3 6.4-.4 3-.9 6.4-1.1 7.5-.2 1.1-.6 3.1-.9 4.5-.2 1.4-.9 4.9-1.4 7.9-.6 2.9-1.1 5.8-1.1 6.2 0 .5 4.7.9 10.5.9 10 0 10.5-.1 11-2.3 1.3-6.3 2.7-14.5 2.8-17 0-1.5.4-2.7.9-2.7.4 0 .7-.3.6-.8-.3-1.2 1.6-14.7 2.2-15.5.1-.1.3-1.6.6-3.2.8-6.6 1.2-9.2 2.2-13.7.5-2.5.6-5 .3-5.5-.6-.9-18.8-1.2-19.9-.3z"/></svg>