<svg width="27px" height="17px" viewBox="0 0 27 17" version="1.1" xmlns="http://www.w3.org/2000/svg" xmlns:xlink="http://www.w3.org/1999/xlink">
    <path d="M2.52143958,0.111946545 C1.78418574,0.111946545 1.121364,0.294619273 0.657340587,0.749415636 C0.193317331,1.20427382 4.70930232e-07,1.86337927 4.70930232e-07,2.58467382 L4.70930232e-07,14.3301345 C4.70930232e-07,15.0503473 0.190780587,15.7013236 0.657340587,16.1556873 C1.12390074,16.6100509 1.79799342,16.8028618 2.54106167,16.8028618 L24.4981835,16.8028618 C25.2256074,16.8028618 25.8928151,16.6053836 26.3524712,16.1460436 C26.8121268,15.6866109 26.9999994,15.0328218 26.9999994,14.3011418 L26.9999994,2.55568109 C26.9999994,1.84576109 26.8095866,1.19923564 26.3524712,0.749415636 C25.895355,0.299688364 25.2394842,0.111946545 24.5178055,0.111946545 L2.52143958,0.111946545 Z M24.9985468,1.39659018 L14.1377187,10.0607855 C13.6757706,10.2833618 13.3242306,10.2833618 12.8622826,10.0607855 L2.01126516,1.40623382 C9.41860528,1.35399745 18.8372096,1.35399745 24.9985468,1.39659018 Z M1.26562563,2.391492 L8.8103204,8.41877091 L1.28524772,14.7261418 C1.25426051,10.4326218 1.25583028,6.29945509 1.26562563,2.391492 Z M25.7343753,2.391492 C25.7441707,6.608546 25.7441707,10.9358218 25.7049265,14.7261418 L18.1896648,8.41877091 L25.7343753,2.391492 Z M9.81104714,9.21078545 C10.627433,9.85854727 11.4586374,10.5405873 12.2736198,11.1715964 C13.0512983,11.5544055 13.948703,11.5544055 14.7263814,11.1715964 C15.5475299,10.5393509 16.3720876,9.86420364 17.1889541,9.21078545 L24.7532707,15.5568236 C17.2674425,15.5722782 9.02237997,15.5569473 2.24673028,15.5472418 L9.81104714,9.21078545 Z" fill="#2D98C2"></path>
</svg>