<svg width="23px" height="23px" viewBox="0 0 23 23" version="1.1" xmlns="http://www.w3.org/2000/svg" xmlns:xlink="http://www.w3.org/1999/xlink">
	<path d="M22.5455383,20.1416185 L18.1163557,15.7543353 C19.3485344,14.0592486 19.9812747,12.0650289 19.9812747,9.97109827 C19.9812747,4.48699422 15.4854879,0 9.99063736,0 C4.49578681,0 0,4.48699422 0,9.97109827 C0,15.4552023 4.49578681,19.9421965 9.99063736,19.9421965 C12.0886712,19.9421965 14.0867987,19.3106936 15.785207,18.0809249 L20.1477853,22.5014451 C20.4808066,22.833815 20.8804321,23 21.3133597,23 C21.7462873,23 22.1459128,22.833815 22.4789341,22.5014451 C23.1449766,21.8367052 23.1782787,20.8063584 22.5455383,20.1416185 Z M16.6177601,9.97109827 C16.6177601,13.6271676 13.6205689,16.6184971 9.95733524,16.6184971 C6.29410154,16.6184971 3.29691033,13.6271676 3.29691033,9.97109827 C3.29691033,6.3150289 6.29410154,3.32369942 9.95733524,3.32369942 C13.6538711,3.32369942 16.6177601,6.3150289 16.6177601,9.97109827 Z" fill="#ffffff"></path>
</svg>